<?xml version="1.0" encoding="UTF-8"?>
<svg id="Calque_1" data-name="Calque 1" xmlns="http://www.w3.org/2000/svg" xmlns:xlink="http://www.w3.org/1999/xlink" viewBox="0 0 772.16 532.9">
  <defs>
    <style>
      .cls-1 {
        fill: url(#Dégradé_sans_nom_3);
      }

      .cls-2 {
        fill: #c2185b;
      }
    </style>
    <linearGradient id="Dégradé_sans_nom_3" data-name="Dégradé sans nom 3" x1="0" y1="178.96" x2="772.16" y2="178.96" gradientUnits="userSpaceOnUse">
      <stop offset="0" stop-color="#c2185b"/>
      <stop offset="1" stop-color="#ea580c"/>
    </linearGradient>
  </defs>
  <g>
    <path class="cls-2" d="M239.21,499.37c-2.65,0-4.68-.73-6.09-2.17s-2.12-3.46-2.12-6.02v-72.28c0-2.65.73-4.66,2.18-6.02,1.45-1.37,3.5-2.05,6.15-2.05h30.89c9.91,0,17.56,2.4,22.95,7.2,5.38,4.8,8.08,11.51,8.08,20.12s-2.69,15.34-8.08,20.18c-5.38,4.84-13.03,7.26-22.95,7.26h-22.82v25.58c0,2.57-.69,4.58-2.05,6.02-1.37,1.45-3.42,2.17-6.15,2.17ZM247.41,453.05h20.25c5.81,0,10.21-1.26,13.2-3.79,2.99-2.52,4.49-6.23,4.49-11.12s-1.5-8.57-4.49-11.05c-2.99-2.48-7.39-3.73-13.2-3.73h-20.25v29.68Z"/>
    <path class="cls-2" d="M334.71,499.62c-5.21,0-9.53-.93-12.95-2.79-3.42-1.86-5.96-4.66-7.63-8.38-1.67-3.73-2.5-8.36-2.5-13.91v-30.05c0-2.65.68-4.61,2.05-5.9,1.37-1.28,3.33-1.92,5.9-1.92s4.55.64,5.96,1.92c1.41,1.29,2.12,3.25,2.12,5.9v30.3c0,4.31.9,7.49,2.69,9.56,1.79,2.07,4.66,3.1,8.59,3.1,4.27,0,7.78-1.43,10.51-4.28,2.73-2.86,4.1-6.64,4.1-11.36v-27.32c0-2.65.68-4.61,2.05-5.9,1.37-1.28,3.33-1.92,5.9-1.92s4.55.64,5.96,1.92c1.41,1.29,2.12,3.25,2.12,5.9v46.94c0,5.3-2.61,7.95-7.82,7.95-2.48,0-4.4-.68-5.77-2.05-1.37-1.37-2.05-3.33-2.05-5.9v-9.44l1.79,3.73c-1.79,4.47-4.51,7.91-8.14,10.31-3.63,2.4-7.93,3.6-12.88,3.6Z"/>
    <path class="cls-2" d="M407.65,499.62c-7.09,0-12.43-1.97-16.02-5.9-3.59-3.93-5.38-9.71-5.38-17.32v-58.74c0-2.57.68-4.51,2.05-5.84,1.37-1.32,3.33-1.99,5.9-1.99s4.55.66,5.96,1.99c1.41,1.33,2.11,3.27,2.11,5.84v58c0,3.81.83,6.62,2.5,8.44,1.67,1.82,4.04,2.73,7.11,2.73.68,0,1.32-.02,1.92-.06.6-.04,1.2-.1,1.79-.19,1.2-.17,2.01.15,2.44.93.43.79.64,2.38.64,4.78,0,2.07-.43,3.68-1.28,4.84-.85,1.16-2.26,1.86-4.23,2.11-.86.08-1.75.17-2.69.25-.94.08-1.88.12-2.82.12Z"/>
    <path class="cls-2" d="M449.43,499.62c-3.67,0-7.56-.37-11.67-1.12-4.1-.75-7.78-2.03-11.02-3.85-1.37-.83-2.33-1.8-2.88-2.92-.56-1.12-.77-2.24-.64-3.35.13-1.12.55-2.09,1.28-2.92.72-.83,1.67-1.37,2.82-1.61,1.15-.25,2.41-.04,3.78.62,3.42,1.57,6.62,2.67,9.61,3.29,2.99.62,5.94.93,8.84.93,4.1,0,7.16-.68,9.17-2.05,2.01-1.37,3.01-3.17,3.01-5.4,0-1.9-.66-3.37-1.99-4.41-1.33-1.03-3.31-1.8-5.96-2.3l-12.82-2.36c-5.3-.99-9.34-2.88-12.11-5.65-2.78-2.77-4.17-6.35-4.17-10.74,0-3.97,1.13-7.41,3.4-10.31,2.26-2.9,5.4-5.13,9.42-6.71,4.02-1.57,8.63-2.36,13.84-2.36,3.76,0,7.28.39,10.58,1.18,3.29.79,6.47,2.01,9.55,3.66,1.28.66,2.16,1.53,2.63,2.61.47,1.08.58,2.17.32,3.29-.26,1.12-.77,2.11-1.54,2.98-.77.87-1.73,1.41-2.88,1.61-1.15.21-2.46-.02-3.91-.68-2.65-1.32-5.19-2.28-7.63-2.86-2.44-.58-4.76-.87-6.99-.87-4.19,0-7.29.7-9.29,2.11-2.01,1.41-3.01,3.27-3.01,5.59,0,1.74.6,3.19,1.79,4.35,1.2,1.16,3.03,1.95,5.51,2.36l12.82,2.36c5.55.99,9.76,2.82,12.63,5.46,2.86,2.65,4.29,6.21,4.29,10.68,0,6.04-2.44,10.79-7.31,14.22-4.87,3.44-11.37,5.15-19.48,5.15Z"/>
    <path class="cls-2" d="M519.93,499.62c-7.09,0-13.2-1.28-18.33-3.85-5.13-2.56-9.08-6.21-11.86-10.93-2.78-4.72-4.17-10.31-4.17-16.77s1.35-11.8,4.04-16.52c2.69-4.72,6.41-8.42,11.15-11.12,4.74-2.69,10.15-4.04,16.22-4.04,4.44,0,8.44.7,11.98,2.11,3.54,1.41,6.58,3.44,9.1,6.08,2.52,2.65,4.44,5.86,5.77,9.62,1.32,3.77,1.99,8.01,1.99,12.73,0,1.49-.54,2.63-1.6,3.42-1.07.79-2.59,1.18-4.55,1.18h-41.15v-8.94h36.02l-2.05,1.86c0-3.81-.58-7-1.73-9.56-1.15-2.57-2.82-4.53-5-5.9-2.18-1.37-4.89-2.05-8.14-2.05-3.59,0-6.65.81-9.17,2.42-2.52,1.61-4.44,3.89-5.77,6.83-1.33,2.94-1.99,6.44-1.99,10.49v.87c0,6.79,1.64,11.86,4.93,15.21,3.29,3.35,8.14,5.03,14.55,5.03,2.22,0,4.72-.27,7.5-.81,2.78-.54,5.4-1.47,7.88-2.79,1.79-.99,3.38-1.43,4.74-1.3,1.37.12,2.46.6,3.27,1.43.81.83,1.3,1.84,1.47,3.04.17,1.2-.06,2.42-.71,3.66s-1.73,2.32-3.27,3.23c-2.99,1.82-6.43,3.17-10.32,4.04-3.89.87-7.5,1.3-10.83,1.3Z"/>
  </g>
  <path class="cls-1" d="M768.41,274.16c-9.86,17.31-65.17,68.81-76.56,74.46-11.39,5.66-32.67,17.14-54.22,1.14-21.55-16-37.04-52.06-39.08-56.18-2.03-4.13-20.57-45.38-31.23-43.84-10.67,1.54-21.03,22.88-21.03,22.88,0,0-17.64,36.42-26.07,43.79s-15.15,14.17-31.27,15.28c-16.11,1.12-30.34-3.35-40.47-15.12-10.12-11.76-17.47-28.14-23.25-46.9-5.77-18.76-23.4-85.61-27.26-94.57-1.99-4.62-5.08-7.1-7.62-8.41-2.68-1.39-5.87-1.39-8.54,0-2.53,1.32-5.63,3.8-7.62,8.41-3.86,8.96-21.49,75.81-27.26,94.57-5.78,18.76-13.13,35.14-23.25,46.9-10.13,11.77-24.36,16.24-40.47,15.12-16.12-1.11-22.84-7.91-31.27-15.28-8.43-7.37-26.07-43.79-26.07-43.79,0,0-10.36-21.34-21.03-22.88-10.66-1.54-29.2,39.71-31.23,43.84-2.04,4.12-17.53,40.18-39.08,56.18-21.55,16-42.83,4.52-54.22-1.14-11.39-5.65-66.7-57.15-76.56-74.46-8.71-15.28.17-26.71,2.39-29.2.26-.29.53-.56.82-.81,17.95-15.84,34.84,2.2,36.91,4.55.17.19.34.37.53.55,4.71,4.47,60.08,57.02,62.44,60.03,2.48,3.15,3.72-.09,3.72-.09,26.48-49.34,47.81-105.72,94.49-107.93,46.67-2.21,75.22,73.81,79.38,81.73,2.9,5.54,5.29,3.42,6.46,1.64.45-.69.78-1.45,1.02-2.24l38.03-125.48c.08-.27.17-.54.28-.8,14.86-37.62,55.86-36.84,55.86-36.84,0,0,41-.77,55.86,36.84.1.26.2.53.28.8l38.03,125.48c.24.79.56,1.56,1.02,2.24,1.17,1.77,3.56,3.89,6.46-1.64,4.16-7.92,32.71-83.94,79.38-81.73,46.68,2.21,68.01,58.59,94.49,107.93,0,0,1.24,3.24,3.72.09,2.36-3.01,57.73-55.56,62.44-60.03.19-.18.36-.36.53-.55,2.07-2.35,18.97-20.39,36.91-4.55.29.25.56.52.82.81,2.21,2.48,11.09,13.92,2.39,29.2ZM249.87,132.22c0,24.91-20.19,45.11-45.11,45.11s-45.11-20.19-45.11-45.11,20.19-45.11,45.11-45.11,45.11,20.19,45.11,45.11ZM430.77,45.11c0,24.91-20.19,45.11-45.11,45.11s-45.11-20.19-45.11-45.11S360.75,0,385.66,0s45.11,20.19,45.11,45.11ZM609.73,131.19c0,24.91-20.19,45.11-45.11,45.11s-45.11-20.19-45.11-45.11,20.19-45.11,45.11-45.11,45.11,20.19,45.11,45.11Z"/>
</svg>