<?xml version="1.0" encoding="UTF-8"?><svg id="Layer_1" xmlns="http://www.w3.org/2000/svg" xmlns:xlink="http://www.w3.org/1999/xlink" viewBox="0 0 97.7 57.3"><defs><style>.cls-1,.cls-2{fill:#fff;}.cls-1,.cls-3{fill-rule:evenodd;}.cls-4{fill:#0070f2;}.cls-3{fill:url(#linear-gradient);}.cls-5{fill:#a9b4be;}</style><linearGradient id="linear-gradient" x1="36" y1="0" x2="36" y2="35.618" gradientUnits="userSpaceOnUse"><stop offset="0" stop-color="#00b8f1"/><stop offset=".016" stop-color="#00b5ef"/><stop offset=".308" stop-color="#0d90d8"/><stop offset=".578" stop-color="#1675c8"/><stop offset=".817" stop-color="#1c64be"/><stop offset="1" stop-color="#1e5fbb"/></linearGradient></defs><polygon class="cls-5" points="97.7 57.3 0 35.619 0 0 97.7 21.683 97.7 57.3"/><polygon class="cls-4" points="61.315 21.685 25.7 57.3 97.7 57.3 97.7 21.685 61.315 21.685"/><path class="cls-2" d="M57.234,40.853h2.915c1.719,0,2.524.884,2.524,2.192,0,1.221-.786,2.261-2.456,2.261h-1.685v2.427h-1.299v-6.88ZM60.037,44.203c.908,0,1.333-.439,1.333-1.143,0-.708-.469-1.089-1.372-1.089h-1.465v2.231h1.504Z"/><path class="cls-2" d="M63.005,46.278c0-1.147.938-1.685,2.325-1.685h.967v-.308c0-.645-.312-.996-.962-.996-.606,0-1.031.259-1.363.679l-.737-.732c.493-.537,1.162-.947,2.232-.947,1.357,0,2.061.708,2.061,2.002v3.442h-1.191v-.991h-.029c-.327.747-.864,1.089-1.705,1.089-.933,0-1.597-.557-1.597-1.553ZM65.041,46.878c.796,0,1.255-.601,1.255-1.23v-.347h-.757c-.708,0-1.304.19-1.304.859,0,.444.303.718.806.718Z"/><path class="cls-2" d="M68.787,42.391h1.196v1.147h.02c.181-.854.581-1.25,1.25-1.25.195,0,.361.034.459.068v1.157c-.132-.034-.327-.063-.513-.063-.879,0-1.177.605-1.177,1.597v2.686h-1.235v-5.342Z"/><path class="cls-2" d="M72.693,46.4v-3.052h-.781v-.566l1.782-1.777h.234v1.387h1.157v.957h-1.157v2.812c0,.469.151.596.571.596.21,0,.41-.034.586-.083v1.06c-.215.054-.532.088-.845.088-1.074,0-1.548-.396-1.548-1.421Z"/><path class="cls-2" d="M76.126,42.391h1.196v1.123h.02c.244-.61.732-1.226,1.753-1.226,1.147,0,1.66.781,1.66,1.919v3.525h-1.235v-3.228c0-.718-.249-1.152-.967-1.152-.737,0-1.191.488-1.191,1.387v2.993h-1.235v-5.342Z"/><path class="cls-2" d="M81.673,45.062c0-1.86,1.226-2.773,2.681-2.773,1.787,0,2.422,1.309,2.422,2.607,0,.156-.01.317-.02.469h-3.779c.088,1.016.615,1.499,1.543,1.499.601,0,1.001-.176,1.362-.596l.718.718c-.498.562-1.108.845-2.139.845-1.714,0-2.788-.981-2.788-2.769ZM85.545,44.598c-.068-.942-.527-1.357-1.221-1.357-.684,0-1.206.415-1.328,1.357h2.549Z"/><path class="cls-2" d="M87.737,42.391h1.196v1.147h.02c.181-.854.581-1.25,1.25-1.25.195,0,.361.034.459.068v1.157c-.132-.034-.327-.063-.513-.063-.879,0-1.177.605-1.177,1.597v2.686h-1.235v-5.342Z"/><polyline class="cls-3" points="0 35.618 36.388 35.618 72 0 0 0 0 35.618"/><path class="cls-1" d="M42.728,6.697l-7.087-.004v16.852l-6.191-16.852h-6.139l-5.286,14.093c-.563-3.553-4.239-4.781-7.131-5.7-1.91-.613-3.936-1.515-3.917-2.512.016-.818,1.087-1.578,3.209-1.464,1.427.076,2.684.191,5.187,1.398l2.462-4.288c-2.285-1.162-5.442-1.897-8.029-1.9h-.015c-3.017,0-5.531.977-7.089,2.588-1.086,1.125-1.671,2.554-1.696,4.134-.04,2.174.758,3.718,2.434,4.948,1.415,1.038,3.224,1.71,4.819,2.204,1.968.61,3.574,1.139,3.555,2.27-.014.411-.171.795-.466,1.106-.49.506-1.244.696-2.285.715-2.007.042-3.497-.272-5.868-1.673l-2.189,4.348c2.365,1.345,5.166,2.134,8.023,2.134l.368-.004c2.487-.045,4.495-.754,6.099-2.045.092-.073.175-.147.26-.223l-.711,1.899h6.438l1.081-3.286c1.131.387,2.418.6,3.785.6,1.33,0,2.583-.204,3.694-.568l1.042,3.254h10.5v-6.804h2.29c5.536,0,8.809-2.819,8.809-7.543,0-5.262-3.181-7.677-9.954-7.677ZM26.348,21.117c-.827,0-1.602-.145-2.271-.397l2.246-7.087h.043l2.207,7.108c-.664.235-1.421.377-2.225.377ZM43.144,17.044h-1.561v-5.711h1.561c2.082,0,3.743.692,3.743,2.818,0,2.2-1.66,2.893-3.743,2.893"/></svg>